<svg width="767" height="1080" viewBox="0 0 767 1080" fill="none" xmlns="http://www.w3.org/2000/svg">
<path d="M678.664 423.502C678.664 604.549 526.74 751.317 339.332 751.317C151.924 751.317 0 604.549 0 423.502C0 242.454 151.924 95.6865 339.332 95.6865C526.74 95.6865 678.664 242.454 678.664 423.502ZM194.36 423.502C194.36 500.85 259.266 563.554 339.332 563.554C419.398 563.554 484.304 500.85 484.304 423.502C484.304 346.154 419.398 283.45 339.332 283.45C259.266 283.45 194.36 346.154 194.36 423.502Z" fill="#B972FF"/>
<path d="M95.132 896.593C45.7746 829.044 78.8509 738.48 101.559 701.643C134.466 750.318 194.103 779.043 219.808 787.322C240.373 795.269 377.477 836.163 443.458 855.616C550.142 896.593 561.711 913.978 593.844 954.954C614.41 988.729 612.696 1069.61 604.127 1106.44C576.364 1084.59 494.872 1058.85 462.739 1048.08C402.327 1027.85 264.367 979.375 185.104 954.954C125.463 936.08 100.272 908.183 95.132 896.593Z" fill="#B972FF"/>
<path d="M583.525 140.698C562.635 68.6621 603.827 -26 690.24 -26V-25.9577C691.089 -25.9858 691.941 -26 692.797 -26C733.26 -26 766.062 5.68854 766.062 44.7783C766.062 83.8681 733.26 115.557 692.797 115.557C668.981 115.557 647.82 104.579 634.438 87.5753C615.805 91.0381 598.294 106.289 589.616 143.657C588.983 145.278 587.092 145.747 585.737 145.181C584.445 144.641 584.114 143.185 583.794 141.781C583.709 141.41 583.626 141.044 583.525 140.698Z" fill="#B972FF"/>
</svg>
