<svg width="125" height="44" viewBox="0 0 125 44" fill="none" xmlns="http://www.w3.org/2000/svg">
<path fill-rule="evenodd" clip-rule="evenodd" d="M71.389 0H65.0494V30.6455H71.389V17.0387C71.8828 15.7004 73.0335 14.1095 75.2478 14.1095C78.8311 14.1095 79.1527 16.6708 79.2905 18.1087V30.6455H85.6301V17.4347H85.5509C85.7071 14.7922 84.6781 9.54257 79.2905 8.31295C75.0173 7.33768 72.5475 9.14336 71.389 10.8627V0ZM40.3622 30.3974C42.9798 29.8329 45.7767 28.1545 47.4184 25.9883L42.1508 22.9692C41.3093 24.0795 40.1112 24.4882 38.7695 24.7775C37.4279 25.0669 35.3865 24.8586 34.1804 24.1899C33.1421 23.6142 32.3042 22.7293 31.7727 21.6585H48.2356V19.0972C48.2356 19.0502 48.2343 19.0034 48.2318 18.9569H48.2357C48.2344 16.213 47.2845 13.5585 45.5548 11.4655C43.8251 9.37252 41.4278 7.97675 38.7893 7.52643C36.1508 7.07612 33.4421 7.60046 31.145 9.0062C28.848 10.4119 27.1114 12.6079 26.2441 15.2036C25.3769 17.7993 25.4353 20.6264 26.4089 23.1821C27.3824 25.7378 29.2081 27.8564 31.5612 29.1611C33.9142 30.4658 37.7446 30.9619 40.3622 30.3974ZM31.6471 16.536H42.2223C42.0007 16.0279 41.7091 15.5506 41.353 15.1198C40.4665 14.047 39.2377 13.3316 37.8853 13.1007C36.5329 12.8699 35.1445 13.1387 33.9671 13.8592C32.9403 14.4876 32.1319 15.4241 31.6471 16.536ZM118.431 19.5827C118.745 17.9008 120.386 15.1205 125 15.3226V8.04315C123.111 8.08714 119.214 8.97535 118.431 12.15V8.17795H111.907V30.5554H118.431V19.5827ZM51.7271 4.67337L57.9748 2.78611V8.53775H62.4769V14.7387H57.9748V23.4248C58.0917 23.8708 58.4566 24.4531 59.3528 24.4896C60.4555 24.5345 61.9715 24.5345 62.5228 24.5345V30.6906H57.2396C55.4021 30.4359 51.7178 28.7763 51.681 24.175C51.6771 23.6817 51.6935 23.2421 51.7271 22.8513V14.7387H48.2357V8.53775H51.7271V4.67337ZM109.487 25.9883C107.845 28.1545 105.048 29.8329 102.43 30.3974C99.8129 30.9619 95.9825 30.4658 93.6294 29.1611C91.2764 27.8564 89.4507 25.7378 88.4771 23.1821C87.5035 20.6264 87.4452 17.7993 88.3124 15.2036C89.1796 12.6079 90.9162 10.4119 93.2133 9.0062C95.5104 7.60046 98.2191 7.07612 100.858 7.52643C103.496 7.97675 105.893 9.37252 107.623 11.4655C109.353 13.5585 110.303 16.213 110.304 18.9569H110.3C110.303 19.0034 110.304 19.0502 110.304 19.0972V21.6585H93.841C94.3724 22.7293 95.2104 23.6142 96.2487 24.1899C97.4548 24.8586 99.4961 25.0669 100.838 24.7775C102.179 24.4882 103.378 24.0795 104.219 22.9692L109.487 25.9883ZM104.291 16.536H93.7154C94.2002 15.4241 95.0085 14.4876 96.0354 13.8592C97.2128 13.1387 98.6012 12.8699 99.9536 13.1007C101.306 13.3316 102.535 14.047 103.421 15.1198C103.777 15.5506 104.069 16.0279 104.291 16.536ZM12.2586 30.4879C19.0288 30.4879 24.5171 25.1859 24.5171 18.6454C24.5171 12.105 19.0288 6.80289 12.2586 6.80289C5.48835 6.80289 0 12.105 0 18.6454C0 25.1859 5.48835 30.4879 12.2586 30.4879ZM12.2586 23.7049C9.36615 23.7049 7.02138 21.4397 7.02138 18.6454C7.02138 15.8512 9.36615 13.586 12.2586 13.586C15.151 13.586 17.4958 15.8512 17.4958 18.6454C17.4958 21.4397 15.151 23.7049 12.2586 23.7049ZM3.4358 35.7361C1.65273 33.2958 2.84763 30.0241 3.66797 28.6934C4.85676 30.4518 7.01118 31.4895 7.93979 31.7886C8.68273 32.0757 13.6357 33.553 16.0193 34.2558C19.7707 35.6967 20.2665 36.33 21.3609 37.728L21.4521 37.8444C22.195 39.0645 22.1331 41.9863 21.8236 43.3171C20.91 42.598 18.3861 41.7622 17.0661 41.3251C16.9369 41.2824 16.8193 41.2434 16.7158 41.2088C16.0704 40.9926 15.1801 40.6872 14.172 40.3415C11.7712 39.5181 8.70273 38.4657 6.68607 37.8444C4.53154 37.1626 3.6215 36.1547 3.4358 35.7361ZM24.9356 2.40684C21.8139 2.40684 20.3257 5.82657 21.0804 8.42892C21.0841 8.44138 21.0871 8.45462 21.0901 8.46799L21.0901 8.46803C21.1017 8.51875 21.1137 8.57134 21.1603 8.59085C21.2093 8.61132 21.2776 8.59435 21.3005 8.5358C21.614 7.18587 22.2466 6.63491 22.9197 6.50982C23.4031 7.12408 24.1676 7.52066 25.028 7.52066C26.4897 7.52066 27.6747 6.37589 27.6747 4.96375C27.6747 3.55161 26.4897 2.40684 25.028 2.40684C24.997 2.40684 24.9662 2.40735 24.9356 2.40837V2.40684Z" fill="url(#paint0_linear_373_122)"/>
<defs>
<linearGradient id="paint0_linear_373_122" x1="9.00655" y1="0.154583" x2="123.09" y2="60.1982" gradientUnits="userSpaceOnUse">
<stop stop-color="#49038E"/>
<stop offset="1" stop-color="#B972FF"/>
</linearGradient>
</defs>
</svg>
