<?xml version="1.0" encoding="UTF-8" standalone="no"?><!DOCTYPE svg PUBLIC "-//W3C//DTD SVG 1.1//EN" "http://www.w3.org/Graphics/SVG/1.1/DTD/svg11.dtd"><svg width="100%" height="100%" viewBox="0 0 767 1080" version="1.1" xmlns="http://www.w3.org/2000/svg" xmlns:xlink="http://www.w3.org/1999/xlink" xml:space="preserve" xmlns:serif="http://www.serif.com/" style="fill-rule:evenodd;clip-rule:evenodd;stroke-linejoin:round;stroke-miterlimit:2;"><path d="M678.664,423.502c0,181.047 -151.924,327.815 -339.332,327.815c-187.408,0 -339.332,-146.768 -339.332,-327.815c0,-181.048 151.924,-327.816 339.332,-327.816c187.408,0 339.332,146.768 339.332,327.816Zm-484.304,0c0,77.348 64.906,140.052 144.972,140.052c80.066,0 144.972,-62.704 144.972,-140.052c0,-77.348 -64.906,-140.052 -144.972,-140.052c-80.066,0 -144.972,62.704 -144.972,140.052Z" style="fill:#dfbfff;fill-rule:nonzero;"/><path d="M95.132,896.593c-49.357,-67.549 -16.281,-158.113 6.427,-194.95c32.907,48.675 92.544,77.4 118.249,85.679c20.565,7.947 157.669,48.841 223.65,68.294c106.684,40.977 118.253,58.362 150.386,99.338c20.566,33.775 18.852,114.656 10.283,151.486c-27.763,-21.85 -109.255,-47.59 -141.388,-58.36c-60.412,-20.23 -198.372,-68.705 -277.635,-93.126c-59.641,-18.874 -84.832,-46.771 -89.972,-58.361Z" style="fill:#dfbfff;fill-rule:nonzero;"/><path d="M583.525,140.698c-20.89,-72.036 20.302,-166.698 106.715,-166.698l0,0.042c0.849,-0.028 1.701,-0.042 2.557,-0.042c40.463,0 73.265,31.689 73.265,70.778c0,39.09 -32.802,70.779 -73.265,70.779c-23.816,0 -44.977,-10.978 -58.359,-27.982c-18.633,3.463 -36.144,18.714 -44.822,56.082c-0.633,1.621 -2.524,2.09 -3.879,1.524c-1.292,-0.54 -1.623,-1.996 -1.943,-3.4c-0.085,-0.371 -0.168,-0.737 -0.269,-1.083Z" style="fill:#dfbfff;fill-rule:nonzero;"/></svg>